/* XPM */
static char *_d14bd2844ec44aa8c0c542796f3d94bDMgcsMBJ9z2KC41F[] = {
/* columns rows colors chars-per-pixel */
"64 64 164 2 ",
"   c #2F1B12",
".  c #331D14",
"X  c #391F16",
"o  c #372016",
"O  c #3B2117",
"+  c #3E2318",
"@  c #412317",
"#  c #432619",
"$  c #48271A",
"%  c #47281A",
"&  c #4A281A",
"*  c #4B281A",
"=  c #4A291A",
"-  c #4B291A",
";  c #4A281B",
":  c #4B281B",
">  c #4A291B",
",  c #4B291B",
"<  c #4B2A1B",
"1  c #48281A",
"2  c #4C291A",
"3  c #4C291B",
"4  c #4D291B",
"5  c #4D2A1A",
"6  c #4C2A1B",
"7  c #4D2A1B",
"8  c #4D2B1B",
"9  c #4E2A1B",
"0  c #4F2A1B",
"q  c #4F2B1B",
"w  c #4B291C",
"e  c #4B2A1C",
"r  c #4D291C",
"t  c #4C2A1C",
"y  c #4D2A1C",
"u  c #4D2B1C",
"i  c #4F2A1C",
"p  c #4E2B1C",
"a  c #4F2B1C",
"s  c #4F2C1C",
"d  c #4C2A1B",
"f  c #502B1B",
"g  c #542D1B",
"h  c #502B1C",
"j  c #512B1C",
"k  c #512B1D",
"l  c #502C1C",
"z  c #512C1C",
"x  c #512D1C",
"c  c #502C1D",
"v  c #512C1D",
"b  c #512D1D",
"n  c #522C1C",
"m  c #532C1C",
"M  c #522D1C",
"N  c #532D1C",
"B  c #522C1D",
"V  c #532C1D",
"C  c #522D1D",
"Z  c #532D1D",
"A  c #522D1E",
"S  c #532D1E",
"D  c #532E1E",
"F  c #542D1C",
"G  c #552D1C",
"H  c #542D1D",
"J  c #552D1D",
"K  c #572D1C",
"L  c #572D1D",
"P  c #552E1C",
"I  c #552E1D",
"U  c #562E1C",
"Y  c #572E1C",
"T  c #562E1D",
"R  c #572E1D",
"E  c #572F1D",
"W  c #542D1E",
"Q  c #552D1E",
"!  c #562D1E",
"~  c #542E1E",
"^  c #552E1E",
"/  c #562E1E",
"(  c #572E1E",
")  c #562F1E",
"_  c #572F1E",
"`  c #572E1F",
"'  c #532D1D",
"]  c #582E1C",
"[  c #592E1C",
"{  c #582E1D",
"}  c #592E1D",
"|  c #582F1D",
" . c #5A2E1D",
".. c #5A2F1D",
"X. c #582E1E",
"o. c #592E1E",
"O. c #582F1E",
"+. c #592F1E",
"@. c #582F1F",
"#. c #5A2E1E",
"$. c #5A2F1E",
"%. c #5A2F1F",
"&. c #592F1E",
"*. c #57301E",
"=. c #58301E",
"-. c #59301E",
";. c #59301F",
":. c #5A301E",
">. c #5B301E",
",. c #5A301F",
"<. c #5B301F",
"1. c #5C301E",
"2. c #5D301E",
"3. c #5C311E",
"4. c #5D311E",
"5. c #5C301F",
"6. c #5D301F",
"7. c #5C311F",
"8. c #5E301E",
"9. c #5E311E",
"0. c #5F311E",
"q. c #5E311F",
"w. c #5F311F",
"e. c #5D321E",
"r. c #5E321E",
"t. c #5E321F",
"y. c #5F321F",
"u. c #5B301E",
"i. c #60321E",
"p. c #60321F",
"a. c #61321F",
"s. c #61331F",
"d. c #62321F",
"f. c #63321F",
"g. c #62331F",
"h. c #64331F",
"j. c #64341F",
"k. c #61321F",
"l. c #5A3020",
"z. c #5C3120",
"x. c #5D3120",
"c. c #5F3120",
"v. c #5F3220",
"b. c #5E3220",
"n. c #603220",
"m. c #613220",
"M. c #603320",
"N. c #613320",
"B. c #623220",
"V. c #623320",
"C. c #633320",
"Z. c #643320",
"A. c #633420",
"S. c #633421",
"D. c #643420",
"F. c #653420",
"G. c #663420",
"H. c #673420",
"J. c #673520",
"K. c #643420",
"L. c #683520",
"P. c #683620",
"I. c #693620",
"U. c #6A3620",
/* pixels */
". . . . . . . . . . . . . . . . . . .   . . . . . . . . . . . . . . . . . . . . . . . . . . . . . . . . . . o X o o o o o . . . ",
"# # # + O + o o o o O # # o o # o + # o . o + + # # , , , , , % # # # + @ + O + + + O + O o o o o o O + + @ # # # # # # # # # # ",
"# # # , 8 v v s , 8 8 8 p j , # # # # + . . o o # # w p ^ ^ ^ v v ^ ^ ^ X.1.1.=.^ ^ v 8 p 8 p p , # # # # # # # # , , , , , , % ",
"$ , p v v ^ =.n.F.F.n.A.a.1.v v w w # # . o # j v v v ^ a.F.F.F.F.F.F.F.F.F.F.F.F.F.Z.a.1.X.^ v f 8 , , , , , $ $ # # # # # # # ",
"o o o o o o O # # , , , , , , p # , + # . o + # # $ , 8 j v ^ ^ ^ X.X.1.n.n.n.n.n.n.A.A.Z.n.Z.F.F.F.U.F.Z.a.1.1.X.v v , # + O O ",
"^ v p , 8 $ # @ O o o o o O O + O + # # . o o + # # # + + @ # # # $ , , , , 8 j v v v ^ ^ ^ ^ ^ ^ ^ X.X.1.x.x.n.n.n.F.n.=.X.^ ^ ",
"=.=.X.=.x.1.1.1.1.=.X.1.1.=.v j 8 , w + . . o + # # # # , , , # # + # # # , $ $ , , $ # # $ , , , , , , p j ^ =.1.x.A.F.F.a.1.1.",
"=.1.a.F.a.1.=.X.^ ^ ^ v 8 8 p v s # % O . o + # . # # , ^ v v j 8 # + + # # p j j p 8 , , w 8 , , $ # # # # # # # # , j ^ ^ ^ X.",
"# , $ $ , 8 ^ ^ , , , , , , , 8 , # # # . o # # O # o , 1.F.F.a.=.^ , , # , , p ^ ^ v j 8 8 j v v v p p # $ # # $ # # # + # # $ ",
"# , , p p 8 p j p , , , p p s p w # # + . o o # # # O + % ^ n.F.F.8 O # w j ^ X.^ X.=.X.X.X.1.1.1.a.a.A.a.1.=.1.1.=.X.X.^ v p , ",
"n.1.^ j , $ , p p , , 8 p p p p p # # o . . o # # # # # # # # , # # # $ p j j v ^ ^ X.X.^ X.=.1.h.j.F.F.U.U.U.F.F.F.F.U.F.A.n.n.",
"$ $ $ , , # # # # # # # 8 p , , # # # # . . . o # , # # # , p v ^ ^ ^ ^ X.X.a.a.a.1.1.X.X.^ ^ X.X.^ v 8 8 , # # # # # # # $ $ # ",
"8 j v ^ ^ v p p v v v p v p , # # # # # . o o . o # , w w 8 j j v v v v v ^ j v ^ ^ ^ ^ ^ ^ ^ X.X.=.1.1.X.X.^ ^ ^ X.X.^ p , , 8 ",
"v j ^ ^ v p , , $ # # , # + + # # # # + . o + # # # # , v X.1.1.1.1.1.1.1.1.1.=.=.1.1.1.=.X.X.^ ^ ^ g ^ ^ ^ X.X.=.X.^ ^ ^ ^ ^ ^ ",
"# # # # @ + + + o + + o o o o o . o . . . . o o o o o o O O O + @ # # # # # # # # # # # , $ # # # , w p p p p p p p , , # # # # ",
". . . . . . . . o . . . . . . . . .       . . .         . . . . . . . . . . . . . . . o o X X X . . o o . . . . . . . o . . . . ",
"o o o o O # # # # # # # # # # # # , $ , , , , , , , , , , , p p p p , 8 , , # # # # + + + o O O o o o O + # # # # # # # + o o   ",
"+ o + # # 8 j v ^ ^ X.X.X.X.X.^ X.X.X.X.X.1.1.1.1.1.1.=.X.X.X.X.^ ^ ^ ^ ^ ^ ^ v v v ^ ^ ^ ^ v v p , , , p v v v v v v v p # O . ",
"O + # , , , % # # # # # # # , 8 8 j v v v v v v v ^ ^ ^ v v 1.1.1.1.1.1.1.1.1.1.=.X.=.=.=.=.X.=.l.=.^ ^ ^ v v v ^ ^ ^ v v p # . ",
"+ @ O o o o o o o o O O O O O # $ p v v v j p , , # # + O O O o O o o o O + + O + @ # # # # # # $ , 8 v ^ X.=.1.1.^ ^ ^ X.p # . ",
"O + O o o O + # # # , p p v v v v v v v ^ ^ ^ ^ X.^ ^ ^ v p p p w w , , , $ # # # # # + + O O o o o o o o o O # # , , , , p # . ",
"o # # # , , p ^ ^ X.=.n.a.1.a.1.1.a.1.1.1.1.j.F.Z.a.1.=.^ ^ ^ v v s p p p s v v v ^ ^ ^ X.^ v v p , # # + + + o + O o + # , o . ",
"+ # # % , , , , , , p j j v v ^ ^ ^ ^ X.=.=.a.F.j.F.U.U.U.U.U.U.F.a.1.X.^ v j v ^ =.X.^ ^ ^ v ^ ^ =.1.1.X., , # # # # p p v # . ",
". + # # # # # # # # , , , , , w w w p p p p p j j v v v v ^ ^ X.=.a.F.F.F.1.1.=.X.X.=.^ ^ ^ v j 8 , # # # # , , , , # # , p # . ",
"+ # # # # # # # # # # # # # # # # # # # # $ , , , , , , p p p v v ^ X.1.a.n.a.1.=.X.X.^ ^ ^ ^ ^ ^ ^ =.=.X.^ v v v p p , , , O . ",
". . o o o o o o o o O O + + + + # # # # # # # # # # % , , , w w p p p v v ^ ^ =.1.x.n.A.F.a.n.1.1.l.=.=.X.X.X.X.=.=.=.=.v p # . ",
"X o + # # # # # # # # # # # # # # # # # # # # # # # # # # # # , , , w p p p w w p p p p v v ^ ^ X.1.x.n.A.F.A.n.A.A.n.=.^ # X . ",
"+ # # # # # # # # # # # # # # # # # # # + + O O O o o o o o o o o o o o o O O + # # # # # # # # # # # # # # $ , , , # # # o . . ",
"+ # # + O O O O o o O o o o o o o O O O + @ # # # # # # # # # # # + O o o o o o o + + + # # # # # % , # # # # # # # # # # # # O ",
"+ # # # + + + + + + + # # # # # # # # # # # # # # # # # , , , , w p p p p p p p p p p p p , p p p p p p w , , w w , , , , , , # ",
"O # # # + + # + # # # # # # # # # # # # # # # # # # # + + + + + O + + + + + + + + + + + + O o O o + o o o o o o o o o o o o + o ",
". . . . . . . . . . . . . . . . . . . . . . . . . .       . . . . . . . . . . . . . . . . . . . . . . . .     . . . . . . . .   ",
"# # # + # # + + o . . . # , , , , p p , , , , , , , , , , , , , , # # # # + o . . . o + + + O + o . . . o # # # o o o o o o o o ",
"+ # # w v v v s , # # + O + + + # # p v v F.n.n.x.=.X.^ ^ ^ v v v v ^ ^ =.v , # . . o + # # # % , # + o . o , j p # # + # # + O ",
"# # # + # , , v 1.1.X.v p , # O o X o O # p ^ 1.F.F.U.U.U.F.F.F.a.1.1.^ 8 # # o o o o O + # # , w v X.v , @ + # p v v p , # # # ",
"# # % , , # # # # p ^ a.F.1.^ ^ v , # o . . o o + # , 8 v X.=.1.=.=.X.p , # # + # $ , # + + # # , p v ^ 1.=.v p # # , v ^ X.^ p ",
"x.1.^ p , p p p , # # , p v 1.F.F.a.1.^ v , # o . . . . o o O # # # , p p , # # o # , p , , % # # # % 8 s ^ X.1.=.p , , , p v X.",
"v ^ =.x.1.=.^ v v v v p , $ , , v ^ a.U.U.F.1.X.v p # @ o . . . . . . X o o o . o # # 8 v v v p , , , # # , p v ^ 1.1.^ , , p v ",
", p v v ^ =.1.1.1.^ ^ ^ ^ ^ v p , , , p v X.a.F.F.F.F.a.=.^ p 8 # # # @ O O O . . o + # $ 8 ^ X.^ ^ p , , , , , p v ^ =.x.1.v , ",
"1.v , $ , j v ^ =.a.F.1.=.=.^ ^ ^ ^ ^ v p , , , p v v ^ X.1.1.1.=.X.v p w , , # o # # O O + # # , p p v v v p , p p v v ^ 1.n.F.",
"n.F.a.^ j p , , p v =.A.U.U.A.1.=.=.=.=.X.^ ^ v s 8 , , p p p p v v v p , # # o . # # % # # O O O + # # $ w v v p p p p p v =.n.",
"v =.F.F.F.=.^ v 8 , , , s ^ =.a.F.U.F.a.1.=.=.=.X.^ ^ ^ v p p , w p p p p # # + . o + # , j ^ v , # # + # # # # , p p w , , , p ",
", , p ^ a.F.F.x.=.^ v s 8 , , p p v ^ 1.n.F.a.1.1.=.=.=.=.=.=.*.^ ^ v v v p # o . o + O O o # , v ^ ^ p , , # # # # % , p p p 8 ",
"v v v v v v X.n.F.n.x.=.X.^ v v p 8 , p p s v ^ =.1.X.=.=.=.1.=.=.^ ^ v p , # o . . o # $ 8 # o o O # 8 v v s , , , p p w , w s ",
"p p p p v v v v ^ =.a.U.F.n.=.=.^ ^ v p , $ , , , 8 p v v v v p p v v p p w , o . o # # # , v v , # X . X + # , , w w , , , , 8 ",
"% # # # , p , , , , p v ^ 1.F.U.F.1.=.=.v v 8 , , , p , , p s s v v v p , , # O . X + # # , p v =.1.^ , + o o o o + # # # # # # ",
"O o O + + + + # # # # # # + # # , v X.^ p j j v j p w p p p p p p p p p , # # . . + # # # , , , w v ^ 1.1.^ p , # # + O O + O O ",
". . . . .   . . . . . . . . . . . . . . o o o o o o o o o o o o o o o o o o . .   . . . . . . . . . X o + # # , , $ # # O o . . ",
"# # # + # # + O O o . . o + + @ # $ , , , # # # # # # + O O O O O O + # # # # # # # # # # # # # # # # # + @ + O + O O O O O + # ",
"8 p 8 , $ , , , 8 , X . # # p X.1.1.a.n.a.a.a.a.a.a.a.n.a.a.a.1.1.X.^ X.X.X.1.^ ^ ^ X.X.X.X.X.^ X.X.^ ^ ^ ^ ^ ^ v j p 8 8 p p p ",
"+ # $ 8 p j 1.U.F.X.# . # # p v X.=.=.1.x.=.=.^ ^ ^ v p p j =.a.a.a.a.h.a.a.1.^ ^ ^ ^ v 8 $ # # # # @ O O O O O O O O O O O O O ",
"# # # # # # # # 8 p , . + # , p v v p p , , , p p j j v v v j j p 8 8 8 , $ # # # # # @ O O O @ @ @ @ # # # # # # # # # # # # # ",
"^ ^ ^ ^ 8 $ , $ # $ # . . . O O + # # # # # # @ @ O O O O o o o O O O O @ # # # # # $ $ , 8 j ^ X.X.1.1.1.X.X.^ ^ X.=.1.1.$.1.X.",
", , p j p w w # # % #   # # # # # # # # # # $ # $ $ $ , # # # # # # $ $ , 8 8 8 f 8 $ , # # # @ @ @ # @ # @ @ @ @ @ # $ , , 8 8 ",
"O + + # # # # # # # # . o + , w w p 8 p p , $ , , , # , , % # # # # # # # # # # @ O O O O O O O O O O O O O O O O + @ O O O o O ",
"O o o o o O @ # # # # . o + , p v v v v v v v v ^ ^ ^ X.X.1.1.n.X.X.^ ^ v v j 8 8 8 , $ $ $ # # # # # $ $ , , $ # # # # # @ + o ",
"O O O O O O o o o O O . o # p X.=.1.n.x.a.a.a.a.F.U.U.U.U.Z.1.X.v p 8 8 $ # $ , , $ $ $ # # @ O O # + O O O O O O o o o o o o o ",
". . . . . . . . X O o   . o $ , , f ^ ^ =.1.a.1.1.X.^ 8 , # # + O O + O O O O O O o o X X . . X o o o o o o X . . . . . . . . . ",
"# # # # # # # @ O O . . + # , p ^ X.X.^ j 8 , # # # + + + + O + O o O X o o o o X O @ @ @ @ @ @ # # $ $ , 8 , $ $ # # # # # # # ",
"# $ , 8 , , , , , 8 @ . o # , , p p , , # # @ + O O O O O O @ # # # # # $ , , 8 p 8 8 j f v j v ^ ^ f f 8 8 8 8 8 f 8 8 n 8 , # ",
"v ^ v j 8 8 , 8 8 , O   o # , 8 , # # # + # # # # # # # , , # $ $ # # # # # # % # # # # # # # # # # # # # # # # $ , $ $ , $ , p ",
"# # # # # # # # # # X   # # # , , # , , , , , , , , , , $ , % # # # # # # @ + + # # # # # # $ # # # # # # # # # # # # # # # # # ",
"o o o o + + + O o o .   + + # + # # + @ + o o o o . . . . . . . . . . . . . . . . . . . X o o o o o o o o o o + + O O + + + O O ",
". . . . . . . . . .     . . . . . . . . . . . . . .                   .                   . . . . . . . . . . . . . . . . . . . "
};
