/* XPM */
static char *_b49eb18f4c6439e8b19953bb728beb26mPBQOzsog5LSSz8[] = {
/* columns rows colors chars-per-pixel */
"64 64 144 2 ",
"   c #325F41",
".  c #366545",
"X  c #386747",
"o  c #366847",
"O  c #376748",
"+  c #396748",
"@  c #376A48",
"#  c #3B6C4C",
"$  c #3E714E",
"%  c #3F7350",
"&  c #40704F",
"*  c #417553",
"=  c #447A56",
"-  c #467D59",
";  c #497E5A",
":  c #47805A",
">  c #4E825F",
",  c #4C825E",
"<  c #4C845E",
"1  c #4A825D",
"2  c #4E8360",
"3  c #4F8360",
"4  c #4E8460",
"5  c #4E8560",
"6  c #4F8560",
"7  c #4F8461",
"8  c #4F8561",
"9  c #4D8660",
"0  c #4E8661",
"q  c #4F8661",
"w  c #4E8761",
"e  c #4E8561",
"r  c #4F8862",
"t  c #508461",
"y  c #518461",
"u  c #508561",
"i  c #508562",
"p  c #508662",
"a  c #518663",
"s  c #518763",
"d  c #528663",
"f  c #528763",
"g  c #518663",
"h  c #518863",
"j  c #528863",
"k  c #518964",
"l  c #528864",
"z  c #538864",
"x  c #528964",
"c  c #538965",
"v  c #518A64",
"b  c #548865",
"n  c #548965",
"m  c #548866",
"M  c #548966",
"N  c #548B66",
"B  c #558A67",
"V  c #558B67",
"C  c #568B67",
"Z  c #558C67",
"A  c #548D67",
"S  c #558D67",
"D  c #568C67",
"F  c #538A65",
"G  c #568B68",
"H  c #568C68",
"J  c #578C68",
"K  c #568D68",
"L  c #578C69",
"P  c #578D69",
"I  c #568E69",
"U  c #578E69",
"Y  c #578F6A",
"T  c #568E69",
"R  c #588D69",
"E  c #598D6A",
"W  c #588E6A",
"Q  c #598E6A",
"!  c #588F6A",
"~  c #598F6A",
"^  c #598E6B",
"/  c #598F6B",
"(  c #5A8E6B",
")  c #5A8F6C",
"_  c #5B8F6C",
"`  c #588E6A",
"'  c #57906A",
"]  c #58906A",
"[  c #59906B",
"{  c #5A906B",
"}  c #5A906C",
"|  c #5B906C",
" . c #5A916C",
".. c #5B916C",
"X. c #5B916D",
"o. c #5A926D",
"O. c #5B926D",
"+. c #5C916D",
"@. c #5C926D",
"#. c #5C926E",
"$. c #5C936E",
"%. c #5D936F",
"&. c #5D946F",
"*. c #5B926D",
"=. c #5E9470",
"-. c #5E9570",
";. c #5F9672",
":. c #5E9571",
">. c #609672",
",. c #609772",
"<. c #629673",
"1. c #639774",
"2. c #609772",
"3. c #619873",
"4. c #629874",
"5. c #629974",
"6. c #659B77",
"7. c #669B77",
"8. c #639A75",
"9. c #669D78",
"0. c #669D78",
"q. c #689D7A",
"w. c #699E7A",
"e. c #699F7B",
"r. c #689F7A",
"t. c #6CA17E",
"y. c #6BA27D",
"u. c #6FA480",
"i. c #71A682",
"p. c #71A683",
"a. c #74A885",
"s. c #75AA86",
"d. c #74A985",
"f. c #77AC88",
"g. c #77AC88",
"h. c #78AD89",
"j. c #78AD8A",
"k. c #79AE8B",
"l. c #79AE8A",
"z. c #7EB28F",
"x. c #7CB18D",
"c. c #7FB490",
"v. c #82B693",
"b. c #81B592",
/* pixels */
"%.-.H - * * * = * + * n n - - n  .,. .> n -.-.R * $ + # # # $ @ @ $ $ % % * $ + + * - H 5.k.b.z.s.z.y.-.l p > 1 1 l  .Z l 8 1 > ",
"R H - # . . # * # # > R p = > n Z -.,.R  .5.5.Z 1 > * * = = = % $ = - = * * $ + . + - n  .e.s.e. .,.R > 8 n f > 1 p  . .h 8 1 > ",
"R p = * # + % * * * > R l - = ; : n =.H H  .H > n R - - 8 1 1 - * - - - = * = = # . $ = ; n R H > = * * - > - = = - n R n l p G ",
" .n - * * # # % % * - n [ n ; 8 2 p R _ H 8 = = H H - = - > h l 1 > 1 - * = - - * * * * > %.&. .> = * # # $ # # % - p p - = >  .",
"R  .> - - * + + $ = - [ 6.1._ -.-.%.%.,. .8 = $ = - * * * >  .%.R H Z 1 = - 1 1 - - * * h 5.-.H - * # $ * * * $ * * - = * * = p ",
"1 > - - - * # $ = - h 9.k.f.6.-.%.R R -. .H > # + # # # # - n  . .'  .l 8 l l 8 1 - * * >  .n 1 * + % = - h 1 = - ; p 8 = * = - ",
"l ; - - = * * = = - R e.k.i.5. .R 8 > n  .H p * + $ $ # + # - p p Z [ H  .,.-.Z 8 - * $ * - - = # # = - h [ l 2 p l ,.%.8 - p Z ",
" .2 8 Z 8 - = = * - Z ,.y.y.5.,.&.n > > H p p - = * * % # # - 8 p l n H 5.6.5. . .8 - - - - - = * * = = > l l n n n ,.,.H l  .,.",
"n 8 l l > = = = = : h [ y.f.p.9.e.6.R - = - 8 n l - = * * * = - 1 l n h  .-.-.&.-.Z < < < < < : - = = - - 1 H ,.%.%. .%.,.6.5.,.",
"8 8 8 - * * * * = : h &.y.z.f.9.y.6.l # + = H  .n - = - = * = * = - - : 8 8 l H -.5.5.H r r 8 1 1 : - = = = Z 5.9.u.%.%.y.f.y. .",
"n l - # $ % $ * - : 8 Z 5.d.f.,.l 8 * # $ = 8 h 8 1 - 8 8 1 = - - * + % - - - 8 -.d.d.9.&.$.Z 8 < 1 : - = * > &.9.u.y.e.u.s.6.n ",
",. .- # $ $ $ * - - 1 8 5.f.k.&.- * * * * = < l h < : l H 8 1 h  .- # $ = - - 1 &.i.i.y.6.6.5.&.H Z l 1 - = - l &.y.s.d.y.9. .R ",
" .l = * * * * * = = - < y.b.k. .* % * - - 1 Z  .Z 1 = - - 1 8 l l - * - - 1 < 8 H 5.6.5.y.u.k.s.9.5. .r 1 : - 8 Z -.e.e.&. .R R ",
"1 = * = - = % % * = - < 9.k.u.l - = * - 1 8 H H 8 = = = * - Z  .H 1 - 1 1 < < < l -.&.6.f.c.b.c.i.5. .8 1 : = > h p p p > 8 l h ",
"= * * = * * * * - : 1 h -.y.,.< : 1 - - < l  .&.H - = = = = 8  . .8 - - - - - - 1 Z  .9.k.b.v.b.u.6. .8 1 - - 8 8 : = - - 1 1 - ",
"= = - - = $ + * - < l R  .5. .1 : > > 8 l  .,.-.&.h - = = * - n l 1 = * % * * - 8 [ 5.y.d.d.x.z.y.5.H 1 1 - l [ r : = 1 Z h - = ",
"1 1 1 1 - # . # : 8 Z 5.-.-.H 1 = 1  .e.5.5.,.-.-.l - = * $ = n R 8 - * * * = 8 &.5.9.i.u.5.t.g.y.-.l 8 Z 8 8 r < - * 8 [ Z - 1 ",
"n 8 < : = # . * : < r  .5.5.H - * - 5.d.u.9.,.-.H 8 : - = # * R 5.H = * * * - l -.-.,.y.-.Z y.z.i.-.r 8 H 8 1 1 - % = h p : - H ",
"l 8 < - * # $ = : : < [ y.y.H : * * l 9.9.5.5.[ 8 : : : - = = p  .l = * = - : 8 Z l r h 1 8 9.k.y.' > : 8 1 : : - * > %.1 % - l ",
"Z l 1 = * * = > > < A 6.f.p.H 1 - = - R -.5.&.h 1 : - = = = = - > > < 8 - - 1 < 1 - = % * 1  .5.%.Z 1 : 1 : - - = - - > * = 1 r ",
"l H > = = - l [ Z l &.y.s.y.l 1 : = = h  . .A 1 - - * = - - = = : 1 h h 1 - 1 : = # # $ * - 8 Z &. .h 1 : - % # * - = * % : < 8 ",
"h H l 1 8 -.e.9.R l &.6.e.5.l - - - - < Z Z 8 - * * - r H h 1 8 Z 8 : : : : - = # + $ = - 1 l [  .H 8 : - = # $ - - * * * - : 1 ",
"Z 5.$.l -.d.k.d.H 8 &.5.5. .l 1 1 8 8 l H h : = * - H  .&.&. .&.5.H = = - - = * $ # = 1 l R  .5.&.l 1 - = * $ = - - * % = = = - ",
" .6.;.H 5.u.y.%.- = l [ H  .-.l r H Z H Z < - = 1  .5.-.5.y.6.5.5.H : 8 h 8 - - = - 1 r $.5.,.9.&.Z 8 1 : : - - - = * % * * = : ",
"' -.H r A [ l - = * 8 h 8 R -.l r H A Z r - * = p  .,. .&.y.5.-.-.l 8 l Z l 8 8 8 < < r [ 5.,.e.5.5.[ l l l 8 : = * * * * = : < ",
"8 h 1 1 1 1 : = * ; n l - 1 p 1 1 h 8 < 1 = $ * 1 l l n R  . .-.n 1 1 - : 1 p n l 1 : 1 l [  .%.5.u.e. .R  .l 1 - * * * * = - 1 ",
"- = = - 1 l 8 - = p n p ; - - - p Z 8 : - = * * - 1 p 6.u.&. . .8 : * $ - l l 8 8 - = 1 l  .H l 6.k.s.y.&.H r 1 = $ % * * * * : ",
"$ * - : 8 n p - * - - - > > > n  .R l - = = * * - > n 7.i.%.Z  .Z : % = n  .l > p - - r H [ l < l e.s.s.,.r < - $ . O # * % $ % ",
"$ * - 1 1 1 - - * $ * - 8 n R  .%.R l - * * * * = - p =.5.n  .5.R - % - H n - 1 n p l H $.Z : * * p y.k.y.A 1 = # . + * = = = $ ",
"$ * - - - * * - = * = 1 l R  .,.e.6.[ - * % * * * > n  .-.H &.-.2 # * - - = = - 8 l Z H H 8 - - = 1 6.k.f.,.> - = * - - = = * $ ",
"@ o $ * * $ % = = = : l n R  .y.c.s.5.r : - = * = l R -.y.,. .p * # - - * * - 8 h 8 l r < 1 1 : = * l y.u.5.[ l > > 8 - * $ @ @ ",
".   . $ $ $ $ $ = - - 8 H  . .y.c.d.5.A 8 1 - = - 8 n ,.d.6.l * # = - * * - 1 h l 8 : - - : : - % @ = Z ,.,.5.5.H l 1 * % $ @ o ",
". . o # # $ $ # $ * - 1 8 l Z -.y.e.6.&.l < - - 8  .[  .y.%.- % * * $ + # = < Z l 1 - : 1 1 - = $ # - 8 H 5.6.6. .H > * * * $ o ",
"@ + $ % # $ $ + # * - : - : h -.9.u.k.y. .1 = - R y.6.H H 8 = * * % # @ $ : H 5.-.l < r A p > > = = 1 l  .5.-.&.R  .n - * % * $ ",
"# $ = = * $ # . # - - - = : Z 5.9.i.c.s.9.8 : 1 [ y.6.H 8 - = = * $ $ $ - 8 -.d.p.5.A $.5.-.G f 1 1 h  .5.-.Z 8 n &.H - * # $ % ",
"$ % = = = * # + # = = = - 8 [ 5.5.9.i.k.d.-.Z Z l Z p : - * * * * = = - l Z 5.k.z.s.y.9.9.5.H ; - 1 l  . .H 8 - 8  .n - * + # * ",
"$ * = - 2 - * * = - 1 1 8 l Z Z H H 6.f.k.5.&.&.l = % % * * * * = - : 8 [ n Z y.k.z.x.y.5. .8 = * : l Z Z H l : > %.Z - # + + * ",
"# * = > R  .- * - f n p h [ l 1 1 8 $.6.6.H Z l 1 * + # % $ + $ = - = = ; - : [ u.x.z.y.H - * # = r [ &.5.5.%.8 1 l > = # + + * ",
"+ # * 2 &.%.p - = - 1 : 1 8 1 = = : 8 8 1 = - = * * $ * * $ # % * * $ # # = l -.9.y.y.-.p * + % 1 r [ 5.y.e. .r 1 1 1 - * + # % ",
"$ $ * >  .n l R > = = = = = * * - : - * % * * * * = * = - 2 p - = % % % * 1 l &. .[ &.-.n * * = : 1 h  .6.5.A 8 1 : : = % # = = ",
"1 - - - - = - p : - * $ % * = - : - * # # # $ # # * = - n %.[ h = % $ = - : - - > H -.&.> * - : - - : Z 5.&.l : - = = * % = 8 8 ",
"h 8 p t - = $ # * = # + + + # * - * # $ # # + + # * = 1 [ &.Z > - = = 1 > - * * 1 R  .n - = = - - - : l  .H < = * * $ * = - 8 n ",
"8 > t n  .n = + + % + . + . . $ * $ $ = * # + # * = - - n Z > - - 8 p H l - * = : < p 1 1 - * $ % = 8 Z H l 1 - = $ # * - - 1 8 ",
"> 8 p [ ,.R 2 * # % * $ + + # * * $ * - = * # $ * * * = - ; = * - f R  .p = * * * - - 1 1 - # + * l '  .[ h = - = * * = - - - : ",
"Z l 8 8 n R _ > * = - = * - 8 - * # % - - = * * * * * = - : - * * > H H 1 = % # $ : 1 - - = * = G y.y.$.l - # = - * - - : - - p ",
"&.%.H R =.5.6.%.l < 1 - : H -.8 * # % - - = = = - 1 1 1 1 1 1 - = - h  .p = # + + = - * % * - 1 5.k.s.5.8 * # = = * * - - - < [ ",
" .-.u.f.k.t.y.y.6. .l 8 l R n - % + # * = = - - 1 l H h 8 r Z Z 8 - > n l = $ @ @ * * $ # * - l e.f.u.5.Z - - - * $ # * - - 8 ' ",
"n 5.p.k.d.6.6.u.9.-. . .&.h = $ + X + * = = - 1 Z 5.6.&.l [ ,.6.5.-.n f > * $ + $ = = $ # * : 8  .6.-.' l 8 1 - = * * = : 8 A h ",
"< [ 5.6.%.p Z %.[ [  . .l * # + + + * - - - > h &.6.9.6. . .,.6.e.s.u.6.n 1 - * * = - * $ = 1 < 8 8 > l Z r 1 = = = = - l  .$.A ",
"- - > 1 * = H [ 8 p Z 2 * # # + # - 8 1 - l Z H 6.y.9.6. .Z H H 5.f.x.f.6. .n = * = - * % = - - = = - 8 h 1 * % = - - 1 H  . .r ",
"- * $ % * - 8 r 1 - - * = 8 2 * - H  .n l &.&.9.k.z.i.y.5.H h H ,.y.d.y.&.5.%.- % * * * * = = * $ % = 1 < - = = - 1 1 1 r H H h ",
"- % = 8 8 1 1 < - * $ * 1 H H > Z  . .h R &.5.s.b.c.z.f.e.-.' Z Z Z H h 8 Z n 1 * * * * = = = * * * - 1 1 - - - 8 l r < 8 l Z 8 ",
"* - r  .Z 1 - 1 : - ; - - 2 2 n  .Z > - r H 5.i.s.k.c.k.9.$.&.H 1 - - - - 1 n h = $ # % * - - - - = - - - - : h  .,.[ l Z h 8 - ",
"= : < h > - - - - >  .2 * $ * - 8 - = = < Z 5.5.5.6.y.y.&.[ $.l - - = % % 1 l 8 = # + # * - : - = * = - - 1 r &.9.6.H A [ 8 = = ",
"* - - = = - - = * = > - & + + * * * % - 1 l $.&.H h h H [ H [ Z H Z - % - < 8 1 % + # * = 1 8 - = = : < 8 r [ y.d.6.A r 8 - % $ ",
"= - = % - < 8 - * * = > - % * = * $ $ * - 1 l H l < < h  .H l H &.-.n 1 1 8 > * + # = - 1 l H l > < Z [ H H 5.s.z.y.Z < - = % * ",
"- - = = : l H l - = - p t - > - = $ % = - : 1 < - = - 1 r 8 < h Z H r 1 8 n > * + $ = - > H &.[ H H H  .Z H 5.f.z.u.[ < 1 - - - ",
": - - 1 8  .-.H 1 = * > n Z l 1 = = = = = - : - - - - - - : : - - - 1 1 < l - % + # * * = 2  .-.,.&.H H h l 5.f.b.i.[ l l 8 1 : ",
"8 8 8 8 h H  .l - * * - l  .H - - = * $ * = > l l 1 - = = - : - * * * = = : - * + # # $ * - R ,. .R  .R l  .y.k.k.9.[ &.$.l 1 < ",
" .-.9.&. . . .h = $ # * - 8 > - - - * $ * = l %.Z 1 * * = - - * # # $ # * = * + + # $ * - p R -.n 2 H H  .e.s.d.e.$.[ &.&.Z 8 l ",
" .e.k.u.6.5.5.l - % + # = - > n Z > # # * = h n - * # % = = * # # # $ + # * $ # # * = * 8 ,.,.R 8 p  .-.5.y.t.5. .l l Z  .[ l l ",
"l -.i.y.6.5.5.Z : - * $ * = >  .-.p = = = - f z = # + # * = % # + # $ # $ * * * = > 2 - p 6.,.R H Z H  .5.,.5.l 8 1 < < l Z h 8 ",
"8 H -. .H H Z < - - - * * * -  .-.H z ; * * - ; * # # # * * $ # + + $ $ $ $ * * * - ; - p ,.u.i.9.&. .R R %. .1 - - > : < H l < ",
"R 5.,.l 1 1 : : - = = : ; * - n -.%.R - = ; 2 - + # $ $ # # $ # o o + # # $ * $ # * - > n i.b.c.f.i.9.5. .R p - - 8 R 8 8 l 8 8 "
};
