/* XPM */
static char *_107e977902d4537c554f392fed830970dQjlnJtedWYsa5H[] = {
/* columns rows colors chars-per-pixel */
"64 64 207 2 ",
"   c #272A23",
".  c #292C27",
"X  c #2F3A23",
"o  c #2D302A",
"O  c #313B27",
"+  c #3D3F3B",
"@  c #313330",
"#  c #32451E",
"$  c #354B1D",
"%  c #39541D",
"&  c #3D5D1B",
"*  c #37511C",
"=  c #3E611A",
"-  c #344323",
";  c #374B21",
":  c #394E23",
">  c #39462B",
",  c #3E4D2E",
"<  c #354128",
"1  c #3D5324",
"2  c #3F5A22",
"3  c #3E5229",
"4  c #3E4B31",
"5  c #3F443A",
"6  c #41631C",
"7  c #456A1D",
"8  c #486F1E",
"9  c #4B721E",
"0  c #415C24",
"q  c #41542D",
"w  c #445B2B",
"e  c #405727",
"r  c #414D34",
"t  c #41453D",
"y  c #444B3B",
"u  c #435232",
"i  c #475B32",
"p  c #4A5D34",
"a  c #47533A",
"s  c #49543D",
"d  c #4C5B3C",
"f  c #505F3E",
"g  c #446423",
"h  c #476922",
"j  c #4A6C24",
"k  c #47622A",
"l  c #49642C",
"z  c #4D6B2B",
"x  c #506F2E",
"c  c #4D7322",
"v  c #4F7327",
"b  c #507625",
"n  c #527B23",
"m  c #53752C",
"M  c #567B2B",
"N  c #597E2C",
"B  c #4D6434",
"V  c #4E6932",
"C  c #4F633A",
"Z  c #526C35",
"A  c #51653C",
"S  c #556C3C",
"D  c #586D3E",
"F  c #516736",
"G  c #557333",
"H  c #587536",
"J  c #5B7B34",
"K  c #567039",
"L  c #5B743C",
"P  c #5E7A3C",
"I  c #577930",
"U  c #617E3C",
"Y  c #607F36",
"T  c #434342",
"R  c #464A42",
"E  c #4A4E45",
"W  c #4B4C4B",
"Q  c #4D5543",
"!  c #4F5B43",
"~  c #4E524B",
"^  c #515D44",
"/  c #51544D",
"(  c #545C4B",
")  c #545453",
"_  c #575A53",
"`  c #595D55",
"'  c #575858",
"]  c #5C5C5B",
"[  c #595758",
"{  c #546343",
"}  c #566942",
"|  c #5A6C44",
" . c #57634A",
".. c #59644D",
"X. c #5C6B4B",
"o. c #5D7343",
"O. c #5F7841",
"+. c #5F714B",
"@. c #5C6354",
"#. c #5E6A52",
"$. c #5E625B",
"%. c #637C43",
"&. c #62744C",
"*. c #657B4B",
"=. c #687E4E",
"-. c #617646",
";. c #626D55",
":. c #61645D",
">. c #636B5C",
",. c #686F5F",
"<. c #657354",
"1. c #677952",
"2. c #6A7C54",
"3. c #667159",
"4. c #69755C",
"5. c #6C7A5B",
"6. c #687657",
"7. c #5F5F60",
"8. c #5F6060",
"9. c #646464",
"0. c #686767",
"q. c #666A63",
"w. c #696C65",
"e. c #676768",
"r. c #676868",
"t. c #6B6C6B",
"y. c #696768",
"u. c #6C7463",
"i. c #6E716B",
"p. c #677060",
"a. c #727D65",
"s. c #71736E",
"d. c #737B6B",
"f. c #6F6F70",
"g. c #706F70",
"h. c #6F7070",
"j. c #717272",
"k. c #757676",
"l. c #737474",
"z. c #757873",
"x. c #797C75",
"c. c #777878",
"v. c #7B7B7B",
"b. c #777778",
"n. c #588226",
"m. c #5C832C",
"M. c #5E892B",
"N. c #578224",
"B. c #5E8232",
"V. c #5F8039",
"C. c #618B2D",
"Z. c #65912E",
"A. c #618434",
"S. c #658C34",
"D. c #63833B",
"F. c #66893A",
"G. c #698C3D",
"H. c #688F37",
"J. c #679132",
"K. c #6A9534",
"L. c #6D9B33",
"P. c #6C923B",
"I. c #6F9838",
"U. c #719E37",
"Y. c #729C3B",
"T. c #73A335",
"R. c #75A13B",
"E. c #79A53C",
"W. c #7CAC3C",
"Q. c #7BAF37",
"!. c #7FB03F",
"~. c #668343",
"^. c #698645",
"/. c #6C8C43",
"(. c #6B834B",
"). c #6E8A4A",
"_. c #718C4E",
"`. c #6E9142",
"'. c #729544",
"]. c #759A43",
"[. c #739349",
"{. c #7A9C4D",
"}. c #6E8352",
"|. c #6F805B",
" X c #708555",
".X c #738D52",
"XX c #718459",
"oX c #76895C",
"OX c #7A9656",
"+X c #7AA243",
"@X c #7EAA42",
"#X c #7BA246",
"$X c #758463",
"%X c #798967",
"&X c #7F807D",
"*X c #7E8576",
"=X c #7E9361",
"-X c #81B43E",
";X c #80AE42",
":X c #82B240",
">X c #7F8080",
",X c #838383",
"<X c #878888",
"1X c #8B8B8B",
"2X c #8F8F90",
"3X c #8F9090",
"4X c #939393",
/* pixels */
"& = = & & & 6 6 = 6 6 6 = 6 6 6 6 6 = = = = = = 6 6 = = 7 8 9 9 c z z l k w w q q q 3 3 3 2 2 2 2 2 0 0 0 3 1 1 : 1 1 3 0 2 & & ",
"& c V.%..X.X2.5.a.d.d.i.w.:._ _ ) ) ) ) Q Q / / / Q ( {  .{ A S P { | o.P P D.G.@.G.D.S } X.3.u.>.<.6.4.<.<.X.X.{ } } A A i 3 % ",
"& c F.5.XX%X|.1.<.i.j.j.j.t.t.t.t.r.' %./.G.o.t.r.t.j.t.r.8.e.e.9.9.t.t.r.r.9.9.r.>.;.#.X.X.&.+.X.X.F z J F.P.Y.P.K X.| } i 0 & ",
"& 6 F.K *.| } { ! ( @.@.w.k.k.k.k.k. X'.w.4.%.j.t.k.v.v.k.t.>.5.<.9.r.r.r.e.e.r.t.t.r.r.9.e.r.t.t.r.'.t.r.e.r.t.>.h r.t.e.W u 1 ",
"% 7 ^.V z A.&...@._ ( ......@.$.t.r.H _ $.} P r.r.e.r.t.>.L z %.D.P.G.P o.o.1.5.u.i.k.k.t.k.k.j.j.j.).2.9.)./.;.B #.j.h.e.~ B 0 ",
"& h D.V B L L I m z g g g k S X...1.z ` { C ;.e.9.r.9.{ M <.k.v.t.r.w.4.XX}..X{.'.].D.%.D | O.*.S D :.{ A *.K.P.O.r.j.e.$.W p 0 ",
"& n.P.+XR.Y.R.R.P.G.U.U.U.R.N '.o.(.Y.X.@.X.*.*.^./.F.C.| 9.t.j.c.k.k.j.e.r.e.9.9.$.:.X.Z J F.].Y.G.B.h I ).<.;.e.e.r.j.r.W w 0 ",
"= K.P F D *.~.C.J o.| | o.o.S } -.*./.Y.S.Z.n m.v z D o.>.j.v.v.k.r.t.t.t.j.j.t.e.e.&.`.XXw.t.e.$.$.X.P P.U.U.U.'.[.(.4.9.] i g ",
"6 L...@.| G.B { @.$.@.$.:.9.$.r.r.t.t.:.>.4.6.&.&.=.-.o.+.X.3.x.<X1X<Xv.l.j.f.j.j.&.[.r.k.v.k.t.t.t.t.r.e.9.@.} z z m.M l Z z h ",
"7 F.K c x *.w.k.v.v.v.v.v.v.v.v.c.v.v.v.v.k.j.k.k.k.v.,X<X1X1X<X<X,X<X1X1X1X<X,Xz.[.i.b.d.2.(.)..X5.k.v.v.v.k.j.t.t.e.9.9.) w c ",
"h L )  .k z /.&.i.v.v.,X,Xk.j.j.k.v.k.k.v.v.<X1X1X2X1X1X<X<X<X,X1X<Xv.v.v.k.v.k.t.Y.>.r.(.E.'.}.(.F.:.9.e.e.e.e.e.r.r.e.e.) i c ",
"h K ) 9.) | K.| g i.v.,X,Xv.6.G.Z >.v.1X1X4X4X4X4X1X<X<X,Xv.v.v.b.k.v.<Xk.k.j.r.t.X.].(.X...@.^ B U / ) ] r.r.9.] r.9.] 9.) z 9 ",
"8 D ) `  .&.V g l { :.r.r.>.G.;.<.V { j.k.v.,X,X<Xv.>X>X,X1X1X1Xv.v.v.,Xv.v.k.l.s.e.$.&.[./.U Z | $.9.9.9.e.e.9.9.e.9.9.e.) b 9 ",
"8 Z ^ h W.n.c 6 _ r.r.t.h.#.S 6.(.^.H w.k.v.1X1X1X4X3X4X4X4X4X4X1X>X,Xv.v.,Xv.,Xv.v.,Xk.j.j.j.h.j.j.j.j.j.r.e.t.j.j.r.e.] R n 8 ",
"9 m.Z z D.E.@X*. .( $.r.j.#.S m 2.Z M.i.v.v.v.v.v.v.v.v.v.l.k.v.,X<X<X<X1X,X,X<X<X,X<Xv.v.v.<X<Xv.j.j.j.k.r.e.r.t.r.t.r.e.} n 7 ",
"9 J ( { L P.Z.C.C.K.L.A ;.;.~.G.D.K.| r.j.k.k.k.k.k.$X].V.I L <.t.v.v.v.j.g.g.j.v.v.c.k.k.v.v.v.r.r.r.r.r.] ] ] ] ] ) ) ) E.n 7 ",
"9 C.b 7 Y.z w k k g 6 6 g z P >.X.S r.$.] w.k.k.j.5.~.>.w.r.>.} D.i.j.k.v.j.j.t.s.x.v.v.v.k.v.,Xv.<X<Xk.t.e.r.r.j.r.9.) | W.j 6 ",
"7 S.} | o.C l B B B V G m.Z.%.D B @.A { C { r.c.h.^.#.j.j.j.j.t.,.+.i.k.k.k.k.k.v.v.v.&Xv.l.j.j.j.t.r.r.r.e.e.e.r.t.e.9.Q.L.0 = ",
"6 A.L F.A.7 j F.`._._.2.*.P.G.o.@...e.@.$.B >.f.e.L >.t.q.e.j.j.r.o.i.v.,Xv.v.v.<X,Xv.k.k.k.k.k.r.9.9.9.] ] ] ] ] ;.X.j Q.B.0 & ",
"6 N J F.P ^.^./.U m j n.J.D...| { :. .l C ( B ] r./.L A z :.r.k.j.X.w.t.j.k.k.v.k.j.j.t.t.w.>.>.#.@..... .{ d p S X.z L.(.I w & ",
"= z ) / ..{ B W.-X-XW.].;.e.8.] e.;.G.~.@.` J ] e.@.&.~.>.e.r.0.9.A $.e.t.t.s.s.:...} S { | 1.1.6.>.>.$.` _ ] ) _ ~.I./.(.L w & ",
"= h F.S.B.k j +X].'.=.2.4.:.9.e.q.5.'.'.'.D.C 9.r.y.9.9.7.9.:.#.B  .] r.i.t.t.t.e.] $.@.{ | o.o.P G.(.;.<.*.*./.;X:X(.&.3.S 0 & ",
"6 7 K.K.L.7 n M.Z.n.7 c n T.T.E.P.A.J I D S | }.}.).^.~.L D | #.r.r.j.r.t.t.t.t.r.0.t.r.] 9.9.9.9.:.*.P S A A P.P.O.z G.P Z g & ",
"= 7 F.m.m.Y.W.P F B A { ! W W ) ( @.@.P P %.P J J D.^._.{.2.l.,X,Xv.l.t.k.k.j.j.r.t.s.t.r.e.r.r.r.e.9.e.r.<.j l B Z :.e.4.#.k % ",
"= 6 Z F.S m.p Q Q ( $.e.e.e.] r.e.r.t.r.r.j.s.| q.>.#.X.+./.| t.k.k.j.e.k.v.k.j.t.t.j.j.j.j.j.l.k.j.j.v.v.u.>.3. Xw.9.t.a.#.g & ",
"& 6 z z g %.-.~.~./.^._ 9.] ) ] 9.e.e.9.] ] ' K { ` ] e.e.e.{  .9.r.r.9.8.e.e.w.r.r.r.r.r.r.e.e.] 8.] ) @.( C G.L J Z P ~.z g - ",
": 6 &.#. .G.F.K A ( ) ] ] ] ) ] ] ] ] ] ) ) W Q %.G.G.~.%.L 0 Q ) ) ) ) ) ) ) ] ] ] ] ] ] ) ) _ { O.U A.V.D.G.| { ! p K K l k X ",
": 6 X.B Z &.q.r.r.r.r.r.r.t.r.9.] 9.r.e.9.] ] ) ) ~ { { f d Q Q s s a a a a s E W W ) ) _ %.P.P.%.&.;.:.X.D.P P m g B 1.w.B i o ",
": 6 { d.&.,X4X4X1X1X<X<Xv.k.k.r.v.v.k.j.r._ ^ F G I H P P P P P L S A p { A S J S.F.F.J.Z.S.B.v g g g g z o.4.u.x.v.,X,Xk.z s o ",
"& 6 / ] ! ~ ) W W W W ) ) ) ) ) ) ) W W W T t + + T T T T T T T T 5 + T T T + T W s g g g l p d ! ( / ) ' 9.e.r.j.e.9.8.T & t o ",
": 6 q u q 0 q q q q q u u q q u u , q , q , , , u u u u u w q 3 q g 0 e q 3 3 3 q w w w q u u u u q q q , u , u u r r , > q y @ ",
"& = % & & & = = & & & & & & & & & & & & % * * * & & & & & & & & & = & & & & & & & & = = = & & % $ $ $ # # - - - - - - - - - X   ",
"G M z l g g g g g 6 6 h h c q q g c n n n n n n n 9 N.n = & & & = 6 & & & = = = = = = = & = = = = = & & & & & z A.Y Y Y J J H K ",
"@.( ....( / / ~ ~ ~ ~ ) ) ] ] ] ] ' ` ` ` ` ] &.*.~.G.L i 0 3 o % n P.P.`.[.P %.%.~.%.S B d a Q ~ W ~ / Q s B G J ].+XE.@X@X@X@X",
"r.r.e.] e.] ] 9.r.9.9.e.r.t.t.t.t.e.k.k.c.j.k.d.S %.&.j.9.w 3 ; = b P.E.!.E.S.m Z B B ..@...( :.;.1.;.:.] ] ] ` :.9.9.9.9.] ` :.",
"t.t.e.r.t.t.e.j.t.t.t.t.t.j.j.t.t.<X<X,Xv.<Xv.k.9.@.X.$.` i T < & w X.=X_./.D.B B B B ( $.X.F.Y.Y.P.A.J O.` 9.r.t.t.t.t.h.t.9.i.",
",Xk.r.k.v.<X,Xv.k.,X,X,X<X1X,X,X<X<Xv.t.k.j.t.r.e.e.e.9./ T W O = 0 (.XX5.(.@.] ) ~ { B B d H *.9.` C B l B 9.r.j.k.k.k.,Xk.v.v.",
"r.] ] r.r.r.r.r.e.t.j.j.j.t.9.r.r.r.9.9.:.;.;.@.] 9.r.t.) T T - 8 n.I.P.H ^ ' ] H M D @.] ] -.| $.J.C  ...B X.e.e.r.r.e.e.e.r.r.",
"] ) ] 9.9.e.e.9.' ] ] ] 9.9.] 9.9.$.;.O.P | o.O.H ^ 9.9.) W T $ c J X.P z g i W ) ) ] ] ] 9.;.F.o.~. . ...F *.e.r.r.r.r.9.9.9.9.",
"e.] ] ] ] ] ) W W W R t T W W Q A g u E W ) W W E S s T W T t $ 6 0 l z X.@.] ] ] 9.9.] ] e.9.^.U *.~.L %.*.` ] e.e.r.r.e.9.r.r.",
"r.] ' _ @. .B k h m S.I.K.c g 0 w a Q ( / / / ] ] ] B ! W T t $ & R C @.9.r.r.r.r.r.e.9.e.t.t.r.~.].4.e.r.r.r.9.9.r.r.r.r.t.t.t.",
"{ l l g j N F.).5.t.e.] 9.] ] ] ] ] 9.9.9.X.~._ 9.9.) B s T t * & ( { w.k.v.c.c.v.v.j.v.v.j.j.j.t.X.K ~.2.3.w.i.t.j.j.j.j.h.t.t.",
"@X@X;X@X{.).*.P S $.e.e.e.e.r.e.9._ ` 9.] P ).*.] e.) W m u u * 1 B q.r.k.k.h.j.k.j.r.r.k.c.c.k.k.j.w.#.| %./.`.].{.{.{.{.{.{.{.",
"a.z.c.v.k.k.j.t.t.j.j.t.t.t.r.$.{ J &.t.e.G.:.A.` 9.9.] ) i 0 = % i 9.r.t.r.r.t.t.2.(.*.w.c.v.v.v.v.c.t.r.t.c.k.l.&Xx.d.d.d.d.d.",
"v.,X,X,X<X1X1X1Xv.v.v.k.k.k.t.=.#X X(.;.9.D.2.A.>.$.` ` ~ y 0 & & E r.r.r.r.e.$.G.F ^ Z *.j.c.v.v.v.v.v.v.v.v.v.v.v.k.l.j.k.v.v.",
"j.j.k.v.k.l.k.v.,X,Xv.v.v.v.t.#Xq.t.:.9.t.>.| L P P Z B w q 3 % % T 9.e.t.r.] G.| ] ) A.P t.k.k.v.v.,X,X1X,Xv.q.S j M S.D.X.t.j.",
"j.k.k.j.j.j.j.v.,Xv.k.v.j.j.w.{.D.%.O.X.$.t.j.t.k.t.e.] ~ T 4 % * T ] e.t.e.:.J...` _ T.R.=.;.>.>.>.d.u.6.=.~.P./.5.d.j.j.i.>.r.",
"} X.>.w.t.j.j.v.,X<Xv.v.i._.P.;XW.R.U.Y.].[.$Xs.i.3.}  .) W 4 % % T ) 9.9.] ] %.I g A.Q.5.(.^.K L P ~.).OXOX'.|.>.q.q.q.p.3.} F ",
"d.4.X.S F S +.;.w.&X,Xl.).~.6.:.9.:.3.X.A S K L O.m.&.:./ W 4 % & a @.k.j.j.k.j.r.XX{.%X<X,Xv.k.j.h.v.v.v.r.$.q.:.#.X.X.1.a.d.x.",
"'.5.v.l.l.c.z.l.v.<Xv.$X).v.d.5.p.r.r.e.9.r.] ` { g 6 k d R r % 1 g M | } } { F B.P.3.e.h.t.t.r.j.k.k.k.h.t.e.] B G (.OXOX.XL P ",
"u.].u.c.v.k.j.j.j.c.w.-X4.s.(.m.Z.U } @.:.r.e.e.e.$.{ x m S.h & ; R z *.o.-.o.&.>.t.j.k.t.j.k.k.k.l.j.j.t.r.]  .O.t.j.k.t.j.j.t.",
"e.&.H 9.r.r.r.r.r.j.e.S K.W.@X;X!.X.@.@.$.e.e.e.e.:.&.o.D.M c = $ T l >.9.9.e.r.e.t.t.t.t.r.] 9.e.r.t.k.j.r.e.S 1.9.4.*.o.A ..e.",
"j.>.J r.t.r.r.r.r.t.e.9.] ] ] _ ) ] ] ] 9.] ) ) / s 7 8 h = & & $ T _  .{  .] e.e.r.e.9.] ] 8.e.` e.j.k.k.t.t.&.D.Z [.}.XX2.h s.",
"j.>.J t.j.j.t.t.t.t.t.t.t.t.j.k.t.r.r.e.$.=.G.K.G.F.m.I l w 6 = $ T ] ] ) Q d ! ) ] ] ] ] :.r.r.r.k.k.k.j.j.j.>.I.M D.).2.~.*.l.",
"l.(.o.k.v.c.l.k.l.h.k.k.k.k.k.k.k.k.j.>.H.F ^ ) ] @.Z ] e.) r & $ T ) ] ] ] ] _ (  .$.j.j.k.v.k.r.k.k.l.t.k.k.j.w.~.K.I./.5.j.v.",
"i.G.i.v.k.j.j.j.k.j.j.k.k.k.k.k.k.t.9.z F.{ ( ] 9.] A m L B 0 = : E ( ( ^ { { { { { } r.k.k.k.t.9.h.j.j.j.j.k.k.l.t.t.t.w.q.r.v.",
"oXD q.@.@.X.;.;.@.] ] ] e.r.r.t.e.#.h { ~.$._ 9.] B.U.L.D.O.y : = m P L }  ._ ] ] ] ] ] $.$.9.e.9.j.j.k.k.k.k.t.t.k.k.t.} >.t.v.",
"h K P *._._.(.%.H m J.S.A.H X.:.( U _ ] ` X.;.e.e.+XY.).P B.g = 6 i p A B z B.S.S.I.Y.T.L.S.*.&.#.<.#.w.j.j.t.e.r.t.w.} i.i.$X}.",
"2.i.t.e.r.t.e.9.9.@.| | o.D.E.-XU.| -.).%.P O.S >.).;.5.S.m.8 = $ s X.K z z A.A.D././.`.R.U.K.L.L.I.G.^.}.1.X.X.3.%.S.P.'./.*.h ",
"| } S A A B x I X.] ` | D.#X~.Z n.L.F B Z S } #.@./.q.v. XL w = & w +.1.A.H A {  .J M.S.P.F.z l g g 6 c b n.C.J.L.K.S.A.m.c h F ",
"( { F Z Z A { ( ' ' D.J | X.s p g J.u.u.d.l.,Xx.&.m D.Y.C.A.N = = A d.&Xv.*X$X$XXX'.'.P./.O.{ | X.#.:.` @.<.o.o.| D S J B.} _ ' ",
"g w i s s a s Q { D.F. .( Q ~ ~ P D.R T W W ( P J J C.F.L.M.h % & w B Z m b 6 c L.L.K.C.M.b 6 6 7 9 7 6 g j M n.m.M.M.N z l k g ",
"X O O < < < > > > 1 = 6 b R.R.E.T.V.J H J C.J.S.S.S.S.S.C.m g % & : > > > 0 z z z z z z 0 1 : $ ; ; $ # # ; : < < O .     . .   ",
"* * * * % % * % % * % & = = = = = 6 7 9 8 8 9 9 8 7 6 = 6 h 6 % & & * * * % % % % & & & & & & & = = = = = = = = = = = = & & & & "
};
