/* XPM */
static char *_1c42f4ee08f40eb8dcd6a46f54dcadc9vRm4lR10zO8UhuV[] = {
/* columns rows colors chars-per-pixel */
"64 64 184 2 ",
"   c #171614",
".  c #191716",
"X  c #1B1C15",
"o  c #1E1C1B",
"O  c #211E1E",
"+  c #1E2215",
"@  c #1F2018",
"#  c #212516",
"$  c #242C15",
"%  c #292F17",
"&  c #23241C",
"*  c #262B1A",
"=  c #292D1D",
"-  c #263014",
";  c #2A3416",
":  c #2D3A16",
">  c #2B331A",
",  c #2E391A",
"<  c #313F17",
"1  c #323D1B",
"2  c #252222",
"3  c #292625",
"4  c #272822",
"5  c #2B2C23",
"6  c #2D2A29",
"7  c #322E2D",
"8  c #2E3123",
"9  c #313425",
"0  c #353B24",
"q  c #383F27",
"w  c #34332C",
"e  c #38372F",
"r  c #36392B",
"t  c #3A3C2C",
"y  c #363231",
"u  c #3A3535",
"i  c #3C3B34",
"p  c #3E3939",
"a  c #403F35",
"s  c #423D3D",
"d  c #35431B",
"f  c #38471D",
"g  c #3B4C1D",
"h  c #3E511E",
"j  c #374121",
"k  c #3A4423",
"l  c #3D4B23",
"z  c #3D422C",
"x  c #3F4829",
"c  c #3D4030",
"v  c #41541F",
"b  c #44591F",
"n  c #414F24",
"m  c #434C2D",
"M  c #435422",
"N  c #465B21",
"B  c #495D23",
"V  c #46522B",
"C  c #4A552D",
"Z  c #4C5A2E",
"A  c #424335",
"S  c #454B32",
"D  c #494F35",
"F  c #44423B",
"G  c #48453E",
"H  c #4A493C",
"J  c #4B5334",
"K  c #4E5B31",
"L  c #4D513B",
"P  c #525B33",
"I  c #51533B",
"U  c #51583B",
"Y  c #4D6324",
"T  c #4D6424",
"R  c #4F6625",
"E  c #4C6323",
"W  c #4F6824",
"Q  c #4E6129",
"!  c #4E6128",
"~  c #506725",
"^  c #506724",
"/  c #506825",
"(  c #526B25",
")  c #52662B",
"_  c #556B2B",
"`  c #596E2F",
"'  c #567126",
"]  c #5A7627",
"[  c #5A7529",
"{  c #5D7A2A",
"}  c #526231",
"|  c #627F2B",
" . c #637D32",
".. c #647638",
"X. c #454040",
"o. c #464141",
"O. c #474141",
"+. c #474240",
"@. c #474242",
"#. c #464141",
"$. c #484242",
"%. c #494343",
"&. c #494343",
"*. c #494242",
"=. c #484441",
"-. c #494444",
";. c #4B4545",
":. c #4B4444",
">. c #4B4646",
",. c #4C4646",
"<. c #4D4747",
"1. c #4E4747",
"2. c #4A4544",
"3. c #4A4840",
"4. c #4D4845",
"5. c #4D4B44",
"6. c #4E4848",
"7. c #4F4949",
"8. c #4F4848",
"9. c #4F4A4A",
"0. c #4F4949",
"q. c #514C47",
"w. c #504A4A",
"e. c #514B4A",
"r. c #524B4B",
"t. c #514C4C",
"y. c #534C4C",
"u. c #534E4E",
"i. c #554D4D",
"p. c #554F4F",
"a. c #564F4F",
"s. c #534C4C",
"d. c #594F4F",
"f. c #545341",
"g. c #585642",
"h. c #5B5E40",
"j. c #55524B",
"k. c #5B554C",
"l. c #5C594A",
"z. c #575151",
"x. c #575050",
"c. c #5B5353",
"v. c #5B5454",
"b. c #5E5757",
"n. c #5C5555",
"m. c #5B5454",
"M. c #5F5858",
"N. c #615757",
"B. c #605855",
"V. c #685E54",
"C. c #635A5A",
"Z. c #685C5C",
"A. c #6A5D5D",
"S. c #6B5D5D",
"D. c #725E5E",
"F. c #656150",
"G. c #6B605D",
"H. c #72665D",
"J. c #6E6363",
"K. c #6E6262",
"L. c #716565",
"P. c #736464",
"I. c #786767",
"U. c #726A67",
"Y. c #756A69",
"T. c #786868",
"R. c #7B6C6C",
"E. c #7B706E",
"W. c #7E7272",
"Q. c #806E6E",
"!. c #827373",
"~. c #897474",
"^. c #867A7A",
"/. c #887D7D",
"(. c #8A7C7C",
"). c #907F7F",
"_. c #65832C",
"`. c #70873F",
"'. c #8C8181",
"]. c #928585",
"[. c #978A8A",
"{. c #9B8E8E",
"}. c #9C9191",
"|. c #A09292",
/* pixels */
"g v h v N N N N B N v h f f f f f f f f d : - $ $ 1 ; 1 f g v b T W T T ~ / ~ Y M v v v v h v v h h f ; - - % 1 1 1 1 1 1 1 1 d ",
"7 8 > > > > = * * * > ; d : : ; - - % - # # $ $ # $ $ ; d d f M M M M h g g g g g f f f - 1 d 1 > > = - 1 : > , 1 f d 1 = 4 5 6 ",
"X.X.s $.$.s p u y y u i q t 8 6 6 2 o X # $ $ # & 2 2 3 3 2 2 2 & & & & & & & & & 4 4 = = 5 > 5 = = * $ < * & & & 2 6 s <.y.<.<.",
"y.>.>.>.X.s p u p p p $.c S z X.s p p 6 + * 7 p p s $.$.s p y u 3 6 6 6 6 y p s p u u u i r 9 9 u 9 > $ : * & & 8 p s >.z.i.y.z.",
"b.b.y.y.c.i.7.>.>.>.X.s u n l F >.p y 3 = 4 p <.7.$.s X.>.>.>.$.s s s p s X.$.X.>.y.e.>.<.e.3.q t 0 > # d & 2 = y s <.i.i.i.c.b.",
"T.A.J.L.C.v.y.7.e.e.=.7.i.I ! A s s p 6 > 5 u <.>.X.X.e.e.e.$.>.e.e.7.7.e.7.$.7.c.c.c.i.<.>.7.5.t k # + v & & w $.s 7.c.y.A./.L.",
"R.S.].!.A.C.C.b.5.} _ m 7.J _ z $.s p 6 1 > u s <.<.<.>.i.c.y.7.7.i.<.7.i.z.z.b.S.R.C.c.z.i.7.e.z l o # v & = u p <.e.y.C.'.'.'.",
"R.P.].!.L./.P.C...P g.V c.K  .m 5.s p 6 1 1 y s >.c.7.c.C.C.i.c.C.y.b.Y.^.^.^.^.W.!.Y.Z.M.v.z.7.x l O # Y * 5 p s y.e.z.A.}.!.|.",
"S.C.J.T.C.b.z.5. .S A 0 Y.h. .S c 7.p 6 1 j u >.v.C.7.$.z.<.b.R.A.L.].W.^.!.}.{.{.|./.T.S.b.s.k l t & # / ; 6 y X.7.y.C.R./.!.P.",
"^.L.A.Y.J.A.C.U.`.Z A s i )  .z i 7.p 6 1 j y <.b.C.i.>.>.>.y.S.b.c.J.Y.W.A.Y.W.!.].R.A.L.b.m z B y 3 $ / , 6 y s e.a.C.C.C.b.b.",
"R.Y.L.L.A.A.S.S.V.`...` [ _ ! 1 y p y 3 1 l u $.e.e.C.i.7.>.i.i.b.c.A.J.L.J.C.C.C.J.A.S.R.l.l S M y 6 $ Y ; 6 u p $.y.v.b.J.S.v.",
"b.c.c.b.v.b.C.C.N.C.F.f.q.<.M k 8 y 7 3 f M y s >.b.C.C.e.>.X.7.y.7.7.e.c.A.J.b.v.R.W.A.B.V L S x y 6 $ v 1 3 p X.s 7.C.R.^.b.7.",
">.$.$.$.>.7.e.s X.$.e.z.b.e.k m , y 6 = f l p 7.i.v.b.I.C.y.$.s $.y.e.i.i.y.i.C.i.J.K.A.I J L z z 7 o * 1 f 3 p X.s >.y.C.s y p ",
"X.s s s s <.s u u p X.<.<.X.a C q w 5 > v j p <.>.>.e.b.z.i.$.p <.7.e.e.c.y.7.y.i.v.C.H.C k.A k i u & * - M * y s s e.c.X.7 7 u ",
"$.X.s >.c.s p u y 7 7 7 y y e k t , = : M = 3 7 u s s p s s p u s X.>.s s $.z.b.i.c.Z.z U =.t m G y & * 1 f 1 4 F s >.s 6 7 y p ",
"u s s >.<.s p y 6 6 3 6 3 3 & = - $ $ : ; $ X o 6 7 7 7 6 6 6 3 y p X.p s X.X.s X.>.t l i p z J e.6 & # d d > : = u y 7 6 7 6 y ",
"6 6 7 7 9 9 9 9 8 5 = = > 1 f , f d f : 1 d 1 d d - $ $ % $ $ $ $ & = = 4 8 w e i e 1 x G F m z y 6 $ o % h > = % 6 6 7 7 7 6 y ",
"N / { | _.{ [ T v g g f f d : ; - - - - $ % : d M B / [ { [ ' ] / M d > * * = = = 5 > 0 9 0 l j 0 > ; : : g g 1 - ; d f g g g g ",
"f d : - * # > $ % - - - - : , & 2 2 3 3 3 3 3 3 3 3 3 3 2 2 2 j M ( { { / N N v 1 f 1 1 > > 1 - - $ % % % $ $ d g g E N v v v v ",
"u p p p p y 7 p p 9 6 $ % > 5 y y u p p s s p p p u y y y y 7 7 6 6 6 3 2 # # @ # # % - - : : - $ & & & & 2 & 6 e s p u p p p p ",
"c.c.d.N.C.7.$.>.s 6 = = ; > w y.7.c.b.L.R.I.P.C.b.b.v.b.C.b.i.i.i.i.i.<.p 7 6 3 3 3 = * * > * O o O O 2 3 6 y p X.>.7.i.b.v.i.e.",
"!.].^.A.C.v.e.p 7 2 & # : : 7 p >.7.z.C.A.P.L.W.J.C.b.b.b.b.v.b.b.c.c.v.i.$.u u u y 6 > ; f = 3 7 7 7 y p p p s s s 7.b.c.>.X.X.",
">.<.y.C.b.<.X.7 3 O o $ f g 5 7 s <.y.y.>.>.c.P.A.v.v.Z.W.J.v.v.v.c.c.N.N.c.7.7.7.X.y l T f = 7 p p s s s s s s >.e.N.c.y.<.s p ",
"s p s X.s p y 6 2 o o % M v & 6 u u p s X.7.7.C.c.b.c.i.c.i.e.i.i.c.N.D.C.Z.Z.b.e.<.y l ( d = p >.e.c.z.z.J.A.b.^.Q.I.c.i.<.e.>.",
"y 7 7 7 7 6 3 2 o X + * N f # 2 6 3 3 3 3 6 6 7 y u p p s p p p X.>.c.c.i.i.e.<.X.u 6 l ( 1 * p >.c.N.c.e.e.=.e.7.e.>.s p p p u ",
"3 2 2 2 2 2 2 O o $ & > l d $ o 2 3 3 3 3 2 2 2 3 3 3 3 3 3 3 3 3 6 6 6 6 6 5 5 4 4 3 0 E > * 3 3 3 3 4 3 3 = = = 3 3 3 3 2 2 3 ",
"1 1 = # o # # & > d v M N d d f & o o o # & * * = = = > > > : 1 1 ; > * > : : : 1 d f h N h d 1 f f f f h f f f b ( ( ' ( T b h ",
"E E v h h g / / ( ( ' v f v f d : - f g f M N B T T ' { { { [ _ g g f d = * : > = * * : M B T / ~ B k 5 & * - : & , g M M B B B ",
"w 7 5 = = = 4 9 4 2 & o # $ $ $ $ - M M 1 % % % % $ $ * = = > > - - > % % % % % % % % $ # - * > = * 5 9 6 5 ; 6 7 6 y y y y w y ",
"s p p u y y w > 6 7 u u 6 3 2 o . ; d 1 2 4 e p p p s =.=.s s s i p i i p i u w 6 > * $ % ; ; > 9 9 p i 0 9 ; p s s u u u y y p ",
"e.>.u y y y s , , 6 3 s p y y 2 & d : 5 6 s <.e.z.v.v.i.i.e.<.>.>.7.7.e.c.i.4.a i y = $ : : ; = 8 s p i e ; w p $.p p s X.>.<.i.",
">.>.<.e.s p y , , q 8 2 6 u 7 = - 1 > 6 p p p s y.z.i.i.c.c.c.e.7.i.M.C.z.c.P.D.=.i > & : < 1 6 5 p u 8 r , G <.y.y.e.e.i.c.v.b.",
"c.z.y.<.<.X.p r 1 c d 9 & & 4 4 % - 4 s $.$.7.$.i.C.i.c.i.i.b.J.C.c.i.i.e.e.y.<.>.p w 4 1 E d 6 7 y u z z t c.N.c.v.b.C.C.C.b.b.",
"C.C.v.7.>.<.7.5.V t t 1 0 # & & % % p X.p $.z.e.i.c.c.A.b.A.P.C.v.i.i.C.C.I.b.c.>.p r 2 ; ( d 5 w 7 r A 0 H R.A.S.S.T.W.Z.C.v.v.",
"A.S.L.S.A.C.v.s.J f.e.0 l = o O % = s s 7.e.b.c.7.e.e.b.L.].R.b.v.v.Y.'.^.!.L.y.<.s 9 4 % ( 1 = 7 y 0 =.k.k.W./.'.'.[.^.L.J.!.!.",
"^.R.T.!.!.!.^.U.D f.Z.0.l j & # - 6 p p <.$.X.<.c.e.y.i./.|.[.(.I.I.^.).!.L.b.>.i.$.8 6 # ( , = 7 y r >.F j.L.L.R.^.'.J.A.}.^.C.",
"C.A.Z.b.C.!.[.E.D 5.c.0.M w > > # 7 s u y u i.c.S.J.i.c.M.A.b.C.S.Y.L.b.c.i.z.X.s u 8 6 # v j = 6 9 w u r >.v.C.A.z.i.b.v.b.C.c.",
"c.y.c.<.7.c.L.A.S j.<.A V w = g # 7 p s p y u 7.i.b.b.C.v.y.e.c.T.L.z.e.e.7.s u p w 9 5 @ - l > 2 3 u p w p p p s s s s $.s s X.",
">.i.C.M.c.R.Y.G.m s.=.H m w d f # 3 y >.X.y 7 u >.e.c.N.Z.C.N.C.P.S.M.v.c.>.>.<.s 7 0 8 3 o 1 j 3 7 $.3.A $.s s p u p s z.e.>.i.",
"c.y.C.L.c.A.Z.j.l F i z 0 7 l h & 2 2 y <.s 7 7 y s z.S.L.S.C.A.P./.R.b.b.b.>.s p i r 5 6 . * M 6 6 p G F s u y s >.e.i.c.L.M.v.",
"y.e.c.e.>.$.s z k i i l w 7 j h & 2 2 2 7 s i.s y 7 6 7 u X.<.e.c.c.i.7.>.$.7.e.$.r = 6 6 o + k 6 2 6 9 7 y s <.e.i.C.S.C.z.e.e.",
"s s p p 7 7 7 0 k i t j 7 3 = v & 3 6 3 6 7 p <.e.s y 7 7 y y y y s $.$.s $.$.s p 9 8 7 7 3 # ; 1 2 2 4 7 y y y y y y u p p s s ",
"6 7 7 7 6 6 3 > 9 5 j = & 2 & 1 3 6 3 2 3 2 2 3 3 7 p 3 3 2 2 6 6 3 6 7 7 p p y y 0 t s y 3 2 % ; 4 2 = 2 3 3 3 6 7 7 7 7 7 6 6 ",
"2 3 3 3 2 2 = : & * $ & # o o ; 2 2 2 2 O 2 2 2 O 2 2 2 2 2 & 2 2 3 6 6 7 6 3 3 5 > 6 y 7 3 4 # % > O # @ o . . o o o o 2 3 2 2 ",
"2 2 2 2 2 2 > > o # % . . X X # o 2 2 2 O o o o O O O o o o . O 2 3 3 2 2 2 & 4 = > 3 3 2 2 2 o o % 1 & * O O O o O O O O o o o ",
"- % - $ $ ; # $   + + X . # - * o o o o o o o . . . X X + + + # $ $ $ % : d 1 % - - # + + X + # & $ ; f ; ; - ; ; ; : : d f f f ",
"b v v v E { ] ' T T N v v g d 1 : 1 f f f g h h d f g v v v v g g f N T b f ; - $ $ $ % % $ * * * = > d N N d 1 f T [ ( T E B B ",
"E / / T T N N N N M l j , 1 1 1 1 1 1 1 1 , = * $ # # # & * f f d % % % & & & 4 6 7 7 9 & & 2 2 2 O O 2 & d f 1 / [ T E h d d d ",
"2 2 2 2 2 2 2 2 2 3 3 3 3 3 6 6 3 6 6 6 6 6 6 8 5 4 4 = * & , d 1 O 2 6 y u X.$.X.s p p p s X.s s 7 6 o o o $ d / g f d ; 2 2 2 ",
"6 6 6 7 y y y y p s s s p p p p s s s s s s i i F X.$.p 3 & 1 f d 2 3 y p u p u u u p p s >.s p X.p y 3 3 2 2 M v b : 6 u 7 6 3 ",
"s s p u y y y y s p p s s X.$.$.X.X.p s X.<.<.t =.X.s $.e.>.0 f 1 3 y s u y p X.>.7.7.e.7.i.e.>.X.s p 7 7 3 2 o g g 4 u u y p s ",
">.s s s X.X.s X.$.X.>.>.X.$.>.$.>.>.X.X.c.b.z.A c.i.i.c.b.c.u 1 > 3 u u p 7.<.$.e.c.N.C.P.I.C.<.X.X.X.u 6 2 2 X $ - u p u s e.i.",
"i.y.7.e.y.i.e.7.>.$.>.>.7.7.y.c.b.c.z.i.i.$.e.H =.e.i.N.N.A 0 k > 5 u u >.e.z.S.Z.N.b.C.S.L.C.e.>.X.$.X.u 7 6 o # 6 u u s p <.N.",
"b.C.C.Z.L.A.S.P.J.L.S.b.A.Z.i.i.i.i.y.7.>.$.p e e p p p e w 0 l d = 7 s 7.C.R.C.y.c.b.L.L.~.A.b.c.e.>.s y 6 7 2 # 6 u u u y X.b.",
"i.c.b.^.R.D.L.C.C.v.i.e.C.Z.i.y.>.X.$.s s >.7.5.A s X.r w > N d ; & 7 s $.b.b.i.7.v.C.C.J.b.C.c.i.c.C.b.u 7 7 & ; 7 s p s s 7.b.",
"c.v.A.P.C.C.b.v.b.i.y.b.c.v.c.<.s 7.A.Y.L.Y.A.j.H =.i 5 - f 1 # d & 6 u u X.e.e.e.C.!.!.L.J.J.R.Y.v.v.z.p 7 7 4 d 7 p 7 p s <.i.",
"c.C.Y.A.c.7.c.C.v.C.A.b.c.J.c.c.b.A.J.L.T.L.Z.s.i i 9 1 T B 6 2 ; 2 6 u p u p s X.C.C.b.c.A.M.y.b.z.7.X.p 6 6 = f 6 u u u p 7.>.",
"e.b.J.P.b.R.^.R.L.C.v.v.A.R.R.^.].[.R.C.N.c.e.A r q k _ k 8 8 2 % & 3 u p p s p i.C.P.C.b.7.<.y.i.c.c.y.s 7 3 = f 6 7 7 6 s s p ",
"i.i.i.z.c.b.b.L.R.R.L.C.C.C.S.J.A.C.c.i.7.>.s t q M Y j 9 y 9 4 # 2 6 p p s p s $.$.X.X.s s s X.$.$.$.$.X.y 3 = f 6 3 3 7 s s u ",
"z.z.c.A.S.Z.A.C.C.b.C.C.P.!.T.Y.v.c.c.i.y.y.H 0 M / 0 5 8 7 8 4 # 2 6 p >.<.7.i.A.J./.R.C.b.C.C.c.e.e.<.s 6 6 5 ; 3 7 3 6 s j.z.",
"<.X.p p p u p s X.$.X.<.>.<.s X.X.X.X.>.>.A x } T 0 2 3 = 5 5 * # 2 3 u X.>.<.b.C.C.S.C.b.i.y.7.>.$.>.$.p 3 2 = * & 2 3 6 p $.s ",
"y 7 y y y 7 y y y u u y u y u u p p p p p , C E : 2 2 4 8 y w * % 2 6 s X.>.>.>.>.>.s s X.$.>.$.X.$.$.p u 2 # # # # # o 2 w u u ",
"3 2 2 2 2 2 2 O 2 2 2 2 2 2 2 2 2 2 2 2 & ; d : O o o o = = = * % * 2 3 6 6 6 6 6 6 7 y 7 w e 9 9 9 8 8 5 2 & % % # & & & & & = ",
"g f f : % - - ; ; : 1 f g g g h h h v h g g g g f d 1 : ; : ; ; f h g g f f 1 1 d d g g f f k j 1 1 , > , 1 : : ; - - h f g M N "
};
